<svg width="125" height="17" viewBox="0 0 125 17" fill="none" xmlns="http://www.w3.org/2000/svg">
<g clip-path="url(#clip0_22_1395)">
<path d="M2.52229 9.09463L4.57652 1.89002C4.77495 1.14945 5.59422 0.474121 6.42223 0.474121H12.704C12.8096 0.474121 12.8425 0.611339 12.7618 0.667168C9.49484 2.90234 5.55588 6.21911 2.70053 9.18813C2.62587 9.26683 2.49269 9.20357 2.52229 9.09463Z" fill="white"/>
<path d="M69.5429 11.1105C68.2071 14.3056 69.9492 15.7524 73.4967 15.7524C76.7347 15.7524 78.5314 14.9829 79.3029 12.0045C79.5652 10.9861 79.3957 9.88835 78.7708 9.20898C77.5594 7.89196 75.2307 7.64578 74.4121 6.88368C73.9958 6.4949 73.9998 5.95208 74.1209 5.4846C74.3429 4.62698 74.9186 4.15883 75.8536 4.15883C77.3173 4.15883 77.3536 5.06016 76.9944 6.12831H80.1349C80.8735 3.89717 79.9056 2.14697 76.2067 2.14697C73.0944 2.14697 71.4142 3.36915 70.8115 5.70858C70.6447 6.35028 70.7059 7.39757 71.09 8.05407C71.9442 9.51772 74.209 9.70001 75.4621 10.5711C76.0063 10.9491 76.0238 11.4603 75.8778 12.022C75.596 13.1143 75.0478 13.6349 73.9561 13.6349C72.9054 13.6349 72.2752 13.0242 72.8758 11.1105H69.5429ZM26.6057 10.2944C26.488 9.90362 26.3609 9.61842 26.1752 9.38569C26.1504 9.35539 26.1449 9.31573 26.1887 9.30161C27.696 8.83682 28.6828 7.88436 29.1005 6.27138C29.6521 4.13845 28.3068 2.43937 24.91 2.43937H19.8612L16.5713 15.1596C16.5148 15.3769 16.6413 15.5531 16.8545 15.5531H20.0098L22.8679 4.49966C23.1732 4.4975 23.4652 4.4862 24.1923 4.4862C25.4077 4.4862 25.8571 5.23687 25.5954 6.24918C25.2503 7.5837 24.2158 8.33301 22.9869 8.33301H22.5221L23.8358 14.6793C23.9912 15.2982 24.3026 15.5531 25.0136 15.5531H27.8306L26.6057 10.2944ZM7.48527 13.42L9.51798 6.31019C9.54828 6.20257 9.43256 6.12387 9.34579 6.19853C6.35457 8.77069 2.74588 12.5287 0.487836 15.3713C0.430662 15.4433 0.459585 15.5529 0.558463 15.5529H9.35789C13.0682 15.5529 15.0988 14.404 15.8354 11.657C16.4354 9.41979 15.263 7.89425 13.391 7.50076C13.3581 7.49403 13.3278 7.4308 13.391 7.42004C14.9744 7.14897 16.5712 6.51198 17.141 4.20215C17.7571 1.70263 15.8455 0.33314 13.648 0.473721L10.2855 12.2482C10.1032 12.8859 9.42247 13.42 8.77539 13.42H7.48527ZM94.1125 13.5326C92.5991 13.5326 92.3737 12.9804 93.4298 8.89211C94.3103 5.49058 95.149 4.3054 96.4997 4.3054C98.0125 4.3054 98.1799 5.11862 97.2033 8.89211C96.2367 12.6299 95.2822 13.5326 94.1125 13.5326ZM97.0277 2.25857C93.0565 2.25857 91.3332 2.96551 89.7733 8.99771C88.4227 14.2228 89.5056 15.7348 93.5421 15.7348C97.6512 15.7348 99.275 14.8907 100.798 8.99771C101.9 4.73118 101.676 2.25857 97.0277 2.25857ZM32.4031 15.5532L35.6936 2.8336C35.7501 2.61567 35.6223 2.43943 35.4098 2.43943H32.0748L28.7843 15.1603C28.7285 15.3769 28.8556 15.5532 29.0682 15.5532H32.4031ZM81.5255 2.43937L80.98 4.57028H84.4858C84.5208 4.57028 84.5208 4.61468 84.489 4.63889C83.9294 5.05862 83.5877 5.66063 83.4249 6.2882L81.1259 15.1603C81.07 15.3769 81.1978 15.5531 81.4104 15.5531H84.7971L87.6437 4.57028H89.3791C90.3531 4.57028 90.9457 4.16199 91.2753 3.31178L91.6062 2.43937H81.5254H81.5255ZM108.853 2.41386C106.133 2.41386 104.868 2.47306 104.125 2.43942L100.834 15.1597C100.778 15.3769 100.905 15.5531 101.117 15.5531H104.273L107.131 4.49904C107.423 4.49742 107.865 4.47348 108.314 4.47348C109.848 4.47348 110.049 5.01899 109.644 6.58152L107.425 15.1597C107.369 15.3769 107.495 15.5531 107.709 15.5531H110.863L113.185 6.58152C113.987 3.47394 112.622 2.41386 108.853 2.41386ZM39.7715 13.3132H38.8029L41.0831 4.49897C41.3757 4.49843 41.4854 4.48622 42.2118 4.48622C44.2586 4.48622 44.2566 5.16356 43.2793 8.94042C42.2925 12.7623 41.7188 13.3132 39.7715 13.3132V13.3132ZM42.7977 2.43939H38.0758L34.7866 15.1603C34.7301 15.3769 34.8572 15.5531 35.0704 15.5531H39.2758C44.5586 15.5531 45.4485 14.5435 46.8974 8.94042C48.1559 4.0712 47.381 2.43939 42.7977 2.43939ZM117.462 13.2955C117.002 13.2955 116.842 13.1563 116.928 12.7843L117.728 9.65119H122.446L122.978 7.59561H118.261L118.796 5.50708C118.937 4.9609 119.326 4.49678 120.084 4.49678H123.861L124.394 2.43985H118.905C116.628 2.43985 115.944 2.8468 115.058 6.27187L113.429 12.5361C112.929 14.6388 113.553 15.5529 115.27 15.5529H120.008C120.94 15.5529 121.54 15.0578 121.829 14.2978L122.218 13.2955H117.462ZM63.5049 13.2955C63.0455 13.2955 62.8841 13.1563 62.9715 12.7843L63.7706 9.65119H68.4885L69.0206 7.59561H64.302L64.8381 5.50708C64.9787 4.9609 65.3675 4.49678 66.1255 4.49678H69.9044L70.4358 2.43985H64.9471C62.6709 2.43985 61.9861 2.8468 61.1009 6.27187L59.4705 12.5361C58.9707 14.6388 59.5949 15.5529 61.3121 15.5529H66.0488C66.9811 15.5529 67.5825 15.0578 67.871 14.2978L68.2598 13.2955H63.5049ZM55.095 9.02356L53.9166 13.3547C53.6684 13.3782 53.3576 13.4145 52.874 13.4145C50.5615 13.4145 50.8177 12.719 51.7937 8.94419C52.8094 5.02137 53.3986 4.30568 54.8428 4.30568C56.2318 4.30568 56.2432 5.24132 55.8894 6.42583H59.416C59.9871 4.21555 59.6057 2.25549 55.4825 2.25549C50.8917 2.25549 49.6446 3.22341 48.1655 8.94419C46.7873 14.2715 47.2406 15.6847 52.2027 15.6847C54.5556 15.6847 55.5417 15.5118 56.9744 15.2508L58.6344 9.02356H55.095Z" fill="white"/>
</g>
<defs>
<clipPath id="clip0_22_1395">
<rect width="124.852" height="16.2162" fill="white"/>
</clipPath>
</defs>
</svg>
