<svg width="82" height="27" viewBox="0 0 82 27" fill="none" xmlns="http://www.w3.org/2000/svg">
<g clip-path="url(#clip0_22_1366)">
<path d="M10.0223 0.00244141H10.746C13.2583 0.0574529 15.7297 1.07517 17.5047 2.87679C16.8493 3.55068 16.1802 4.19707 15.5385 4.87096C14.5418 3.96327 13.3402 3.26187 12.0295 3.01432C10.0906 2.60174 8.00156 2.97306 6.37675 4.08705C4.60175 5.25604 3.40021 7.23646 3.14079 9.3544C2.85406 11.4448 3.44117 13.6453 4.7929 15.2681C6.09002 16.8497 8.06983 17.8399 10.1179 17.9087C12.0295 18.0187 14.0229 17.4273 15.4156 16.0796C16.5079 15.1306 17.0131 13.6866 17.177 12.2838C14.9104 12.2838 12.6439 12.2975 10.3773 12.2838V9.45067H19.9214C20.4129 12.4901 19.7029 15.9145 17.4091 18.0875C15.8798 19.6278 13.7635 20.5355 11.6062 20.7143C9.51714 20.9206 7.35983 20.5217 5.5029 19.504C3.27733 18.3075 1.50232 16.2859 0.628475 13.9066C-0.190757 11.7199 -0.204411 9.24438 0.560206 7.04392C1.25655 5.036 2.59463 3.26187 4.31502 2.02411C5.96714 0.800108 7.97425 0.126217 10.0223 0.00244141Z" fill="white"/>
<path d="M64.7739 0.717529H67.6958V20.3566C66.7264 20.3566 65.7433 20.3704 64.7739 20.3429C64.7876 13.8103 64.7739 7.2639 64.7739 0.717529Z" fill="white"/>
<path d="M26.4205 7.52532C28.2228 7.1815 30.1753 7.56658 31.6636 8.65305C33.0153 9.61576 33.9575 11.1286 34.2442 12.7789C34.6128 14.6906 34.1486 16.781 32.9198 18.2938C31.5953 19.9854 29.4244 20.8931 27.308 20.7556C25.3692 20.6456 23.4849 19.6691 22.338 18.0738C21.0409 16.3134 20.7268 13.8929 21.4368 11.83C22.1468 9.61576 24.154 7.92415 26.4205 7.52532ZM26.8301 10.1384C26.0928 10.3309 25.4101 10.7572 24.9186 11.3624C23.5942 12.9577 23.6761 15.557 25.137 17.0423C25.9699 17.895 27.2261 18.2938 28.3867 18.06C29.4653 17.8675 30.4074 17.1386 30.9263 16.1759C31.8274 14.5393 31.568 12.2838 30.189 11.0048C29.3015 10.1796 28.0044 9.8358 26.8301 10.1384Z" fill="white"/>
<path d="M40.8933 7.52511C42.955 7.12628 45.2079 7.7039 46.7508 9.1617C49.2631 11.4309 49.5361 15.6806 47.3925 18.2936C46.0954 19.9439 43.9927 20.8516 41.9173 20.7554C39.9375 20.7004 37.985 19.7101 36.8108 18.0736C35.4863 16.2719 35.1996 13.7964 35.9506 11.6922C36.7015 9.54678 38.6677 7.91019 40.8933 7.52511ZM41.3029 10.1382C40.5656 10.3307 39.8829 10.757 39.3913 11.3484C38.0806 12.9162 38.1352 15.4743 39.5415 16.9733C40.3744 17.8673 41.6715 18.3074 42.8731 18.0598C43.9381 17.8535 44.8938 17.1384 45.4127 16.1757C46.3002 14.5253 46.0408 12.2698 44.6481 10.9908C43.7606 10.1657 42.4635 9.83559 41.3029 10.1382Z" fill="white"/>
<path d="M53.1686 8.32296C54.7388 7.33275 56.8278 7.0577 58.5209 7.91037C59.0534 8.14417 59.4903 8.54301 59.9136 8.94184C59.9272 8.57051 59.9136 8.18543 59.9272 7.80035C60.842 7.8141 61.7568 7.80035 62.6853 7.8141V19.9441C62.6717 21.7733 62.2074 23.7124 60.8967 25.0465C59.463 26.518 57.2647 26.9719 55.2849 26.6693C53.1686 26.353 51.3253 24.7989 50.5061 22.8323C51.3253 22.4334 52.1855 22.1171 53.032 21.7458C53.5099 22.8735 54.4793 23.8362 55.6945 24.0563C56.9097 24.2763 58.3161 23.9737 59.108 22.956C59.9545 21.9108 59.9545 20.4805 59.9136 19.2015C59.2855 19.8204 58.5618 20.3705 57.688 20.5768C55.7901 21.1131 53.7011 20.453 52.2401 19.1602C50.7655 17.8675 49.8916 15.8733 49.9736 13.8929C50.0145 11.6512 51.2707 9.49196 53.1686 8.32296ZM55.9949 10.0833C55.162 10.2209 54.3838 10.6885 53.8513 11.3348C52.5678 12.8752 52.5678 15.3369 53.8649 16.8497C54.6022 17.7437 55.7901 18.2388 56.937 18.115C58.0157 18.005 59.0124 17.3173 59.5449 16.3684C60.4461 14.7593 60.2959 12.5726 59.0807 11.1698C58.3297 10.3034 57.1282 9.87704 55.9949 10.0833Z" fill="white"/>
<path d="M71.205 9.02415C72.8435 7.48383 75.3694 6.96122 77.4721 7.77264C79.4656 8.52905 80.7354 10.4407 81.3772 12.4074C78.4142 13.6451 75.465 14.8691 72.5021 16.1069C72.9117 16.8908 73.5398 17.606 74.3863 17.8948C75.5742 18.3211 76.9942 18.1698 77.991 17.3722C78.3869 17.0696 78.701 16.6708 79.0014 16.2857C79.7523 16.7945 80.5033 17.2896 81.2543 17.7985C80.1893 19.4076 78.4006 20.5353 76.4754 20.7141C74.3454 20.9754 72.0788 20.1502 70.6998 18.4724C68.4332 15.8318 68.6517 11.4034 71.205 9.02415ZM72.666 11.5684C72.2017 12.2423 72.0106 13.0675 72.0242 13.8789C74.004 13.0537 75.9839 12.2286 77.9637 11.3896C77.636 10.6195 76.8441 10.1519 76.0385 10.0281C74.7413 9.79431 73.3896 10.4957 72.666 11.5684Z" fill="white"/>
</g>
<defs>
<clipPath id="clip0_22_1366">
<rect width="81.3771" height="26.7541" fill="white"/>
</clipPath>
</defs>
</svg>
