<svg width="84" height="31" viewBox="0 0 84 31" fill="none" xmlns="http://www.w3.org/2000/svg">
<g clip-path="url(#clip0_22_1373)">
<path d="M0.0493164 15.412V30.824H41.5739H83.0985V15.412V9.53674e-05H41.5739H0.0493164V15.412ZM81.7107 15.412V29.4362L41.5958 29.4216L1.47364 29.3996L1.45173 15.3901L1.43712 1.3879H41.5739H81.7107V15.412Z" fill="white"/>
<path d="M7.20752 7.47978V7.87421L7.5216 7.92534C7.6896 7.94725 7.93794 7.99108 8.06942 8.01299L8.30316 8.04951L8.28855 15.4049L8.26663 22.7529L7.74073 22.8114L7.20752 22.8771V23.3081V23.739H9.98313H12.7587V23.3081V22.8771L12.2328 22.8114L11.6996 22.7529L11.6777 19.4076L11.6631 16.0696H15.3152H18.9673V19.3857C18.9673 22.154 18.9527 22.7091 18.8651 22.7383C18.8066 22.7602 18.5291 22.8041 18.2442 22.8333L17.7256 22.8844V23.3081V23.739H20.5743H23.4229V23.3081V22.8771L22.9335 22.826C22.6706 22.7968 22.4076 22.7602 22.3492 22.7383C22.2689 22.7091 22.2542 21.3944 22.2542 15.3757V8.04951L22.5464 8.00569C22.7071 7.98377 22.9701 7.93995 23.1308 7.91803L23.4229 7.87421V7.47978V7.08535H20.5743H17.7256V7.47978V7.87421L18.0762 7.91803C18.2661 7.94725 18.5437 7.98377 18.6971 8.00569L18.9673 8.04951V11.183V14.3165H15.3152H11.6631V11.183V8.04951L11.9772 7.99838C12.8391 7.86691 12.7587 7.91803 12.7587 7.47978V7.08535H9.98313H7.20752V7.47978Z" fill="white"/>
<path d="M27.725 7.28968C26.2057 8.07854 26.812 10.3721 28.5358 10.3721C29.0544 10.3721 29.4561 10.1822 29.7921 9.79504C30.3399 9.15226 30.3399 8.30497 29.7848 7.6622C29.2735 7.05595 28.4481 6.90986 27.725 7.28968Z" fill="white"/>
<path d="M33.4297 7.44326V7.80117L33.9264 7.8596L34.4158 7.92534L34.4377 15.3903L34.4523 22.8479L34.2551 22.8917C34.1382 22.9136 33.9118 22.9502 33.7438 22.9721L33.4297 23.0232V23.3811V23.739H36.0227H38.6157V23.3811V23.0232L38.3089 22.9721C38.1336 22.9502 37.9072 22.9136 37.7976 22.8917L37.5931 22.8479V14.9666V7.08535H35.5114H33.4297V7.44326Z" fill="white"/>
<path d="M43.4585 8.94055L41.9757 9.38611V10.6424V11.9061H40.8436H39.7114V12.4539V13.0017H40.7998H41.8954L41.9173 17.4354C41.9465 22.373 41.9465 22.3219 42.4505 23.0231C43.2175 24.0749 45.511 24.1845 48.2428 23.2934L48.6956 23.14V22.7383V22.3365L48.4765 22.3877C48.3523 22.4169 47.8337 22.4388 47.3224 22.4388C45.9931 22.4461 45.5694 22.2854 45.248 21.6353L45.08 21.292L45.0581 17.1432L45.0362 13.0017H46.4313H47.8191V12.4539V11.9061H46.4313H45.0435V10.1896C45.0435 9.24733 45.0216 8.47308 44.9924 8.48038C44.9559 8.48769 44.2693 8.69221 43.4585 8.94055Z" fill="white"/>
<path d="M54.6852 11.5845C53.5896 11.7306 52.2237 12.2784 51.4568 12.8847C50.5583 13.6005 49.8352 14.74 49.4992 15.9598C49.2728 16.7779 49.2143 18.5966 49.3823 19.5681C49.6234 20.9267 50.0178 21.7666 50.814 22.5701C51.7635 23.527 53.071 23.9944 55.0504 24.0748C57.1394 24.1697 58.8486 23.6146 60.0904 22.4459C61.2663 21.343 61.8142 20.0648 61.8945 18.2606C61.9456 17.1139 61.8361 16.2446 61.522 15.3243C61.2006 14.3675 60.8938 13.8781 60.1999 13.1842C59.7251 12.7021 59.4841 12.5341 58.9217 12.2492C57.9648 11.7818 57.2271 11.6138 55.9635 11.5772C55.401 11.5626 54.824 11.5699 54.6852 11.5845ZM56 12.4903C56.8546 12.651 57.4389 13.1403 57.8626 14.0607C58.3227 15.0541 58.4834 16.0182 58.4834 17.8516C58.4834 21.511 57.5923 23.1618 55.5983 23.1691C54.8751 23.1764 54.3492 22.9718 53.9037 22.5044C52.976 21.5548 52.5232 19.3489 52.7131 16.7632C52.903 14.1702 53.6845 12.7678 55.0723 12.4903C55.5033 12.4099 55.569 12.4099 56 12.4903Z" fill="white"/>
<path d="M70.9879 11.6943C70.0748 11.8112 68.95 12.3152 67.9931 13.0383C67.701 13.2574 67.4234 13.44 67.3869 13.44C67.3503 13.44 67.3211 13.0967 67.3211 12.6731V11.9061H65.2394H63.1577V12.3006V12.695L63.5083 12.7388C63.6982 12.7681 63.9393 12.8046 64.0561 12.8265L64.2534 12.8703V17.8591V22.8479L63.837 22.8917C63.1577 22.9721 63.1577 22.9721 63.1577 23.3811V23.739H65.7872H68.4168V23.3738C68.4168 23.1693 68.3949 23.0086 68.3656 23.0013C68.3291 22.994 68.0954 22.9575 67.8324 22.9063L67.3577 22.826V18.5895V14.3531L67.7229 14.112C67.9274 13.9806 68.351 13.7687 68.6724 13.6446C69.1764 13.44 69.3444 13.4108 69.9141 13.4035C70.6373 13.4035 70.9732 13.5277 71.3531 13.9294C71.9301 14.5357 72.0105 15.215 71.9812 19.5026L71.9593 22.826L71.4845 22.9063C71.2216 22.9575 70.9879 22.994 70.9586 23.0013C70.9221 23.0086 70.9002 23.1693 70.9002 23.3738V23.739H73.5297H76.1593V23.3811C76.1593 22.9721 76.1593 22.9721 75.4873 22.899L75.0709 22.8479L75.049 18.5968C75.0271 14.3896 75.0198 14.3458 74.8518 13.8418C74.6254 13.1479 74.4062 12.79 73.968 12.3955C73.537 12.0084 72.9892 11.782 72.2588 11.687C71.6745 11.6067 71.6233 11.6067 70.9879 11.6943Z" fill="white"/>
<path d="M25.9062 12.2641V12.622L26.2569 12.6658C26.4468 12.695 26.6878 12.7315 26.8047 12.7534L27.0019 12.7973L26.9873 17.808L26.9654 22.826L26.4906 22.9063C26.2276 22.9575 25.9939 22.994 25.9647 23.0013C25.9282 23.0086 25.9062 23.1693 25.9062 23.3738V23.739H28.5431H31.1726L31.1507 23.403C31.1215 23.0013 31.0703 22.9575 30.4933 22.899L30.0697 22.8552V17.377V11.9061H27.988H25.9062V12.2641Z" fill="white"/>
</g>
<defs>
<clipPath id="clip0_22_1373">
<rect width="83.0492" height="30.8239" fill="white" transform="translate(0.0493164)"/>
</clipPath>
</defs>
</svg>
