<svg width="102" height="34" viewBox="0 0 102 34" fill="none" xmlns="http://www.w3.org/2000/svg">
<path d="M93.2583 23.8814C93.2583 22.5837 94.3638 21.5076 95.6968 21.5076C97.0299 21.5076 98.1354 22.5837 98.1354 23.8814C98.1354 25.1791 97.0299 26.2552 95.6968 26.2552C94.3638 26.2552 93.2583 25.1791 93.2583 23.8814Z" fill="white"/>
<path d="M19.9726 17.4247C19.9726 20.1784 19.2248 22.2673 17.6966 23.7549C16.1685 25.2425 14.0551 25.9705 11.2914 25.9705H5.9917V9.51196H11.7141C14.3477 9.51196 16.3961 10.1766 17.8592 11.5376C19.2573 12.9303 19.9726 14.861 19.9726 17.4247ZM15.3556 17.583C15.3556 16.0637 15.063 14.9559 14.4453 14.228C13.86 13.5 12.9496 13.1518 11.7141 13.1518H10.4136V22.3623H11.4215C12.7871 22.3623 13.7625 21.9825 14.4127 21.1912C15.0305 20.3683 15.3556 19.1972 15.3556 17.583Z" fill="white"/>
<path d="M39.0254 9.48022H34.7661V26.0021H39.0254V9.48022Z" fill="white"/>
<path d="M52.9415 19.8301C52.9415 21.8241 52.3888 23.4066 51.3158 24.5144C50.2429 25.6222 48.7147 26.1919 46.7639 26.1919C44.9107 26.1919 43.415 25.6222 42.3096 24.4828C41.2041 23.3433 40.6514 21.7924 40.6514 19.8301C40.6514 17.836 41.2041 16.2851 42.277 15.1774C43.35 14.0696 44.8781 13.5315 46.829 13.5315C48.032 13.5315 49.1049 13.7847 50.0478 14.2911C50.9907 14.7975 51.6735 15.5255 52.1937 16.5067C52.6814 17.4246 52.9415 18.5324 52.9415 19.8301ZM44.9757 19.8301C44.9757 20.8745 45.1057 21.6975 45.3984 22.2355C45.691 22.7736 46.1462 23.0585 46.829 23.0585C47.4792 23.0585 47.9669 22.7736 48.227 22.2355C48.4872 21.6975 48.6497 20.8745 48.6497 19.8301C48.6497 18.7856 48.5197 17.9943 48.227 17.4562C47.9669 16.9182 47.4792 16.6649 46.829 16.6649C46.1787 16.6649 45.7235 16.9182 45.4309 17.4562C45.1057 17.9943 44.9757 18.7856 44.9757 19.8301Z" fill="white"/>
<path d="M58.8916 13.7214H54.6323V26.002H58.8916V13.7214Z" fill="white"/>
<path d="M58.8916 9.48022H54.6323V12.2339H58.8916V9.48022Z" fill="white"/>
<path d="M67.4752 22.8686C68.0605 22.8686 68.7433 22.742 69.5236 22.4572V25.559C68.9383 25.8122 68.4181 25.9704 67.8979 26.097C67.3777 26.192 66.7599 26.2553 66.0771 26.2553C64.6465 26.2553 63.6386 25.9071 62.9883 25.2108C62.3706 24.5145 62.0454 23.4384 62.0454 22.0141V16.9499H60.5498V13.7848H62.0454V10.6513L66.3372 9.92334V13.7215H69.0359V16.8866H66.3372V21.6659C66.3372 22.4572 66.6949 22.8686 67.4752 22.8686Z" fill="white"/>
<path d="M77.2941 22.8685C77.8793 22.8685 78.5621 22.7419 79.3424 22.457V25.5588C78.7572 25.812 78.2369 25.9703 77.7167 26.0969C77.1965 26.1918 76.5788 26.2551 75.896 26.2551C74.4654 26.2551 73.4574 25.907 72.8072 25.2106C72.1894 24.5143 71.8643 23.4382 71.8643 22.0139V16.9497H70.3687V13.7846H71.8643V10.6195L76.1561 9.95483V13.7213H78.8547V16.8864H76.1561V21.6657C76.1561 22.457 76.5462 22.8685 77.2941 22.8685Z" fill="white"/>
<path d="M90.6899 14.9557C89.682 14.0062 88.2514 13.4998 86.3981 13.4998C84.4473 13.4998 82.9517 14.0378 81.9112 15.1773C80.8708 16.2851 80.3506 17.8676 80.3506 19.9566C80.3506 21.9506 80.9033 23.5015 82.0413 24.6093C83.1793 25.6854 84.7724 26.2235 86.8208 26.2235C87.7962 26.2235 88.6416 26.1602 89.3569 26.0336C90.0722 25.907 90.755 25.6854 91.4052 25.3373L90.755 22.5836C90.2672 22.7735 89.8121 22.9318 89.3894 23.0267C88.7716 23.1533 88.0888 23.2483 87.341 23.2483C86.5282 23.2483 85.8779 23.0584 85.3902 22.6786C84.9025 22.2987 84.6749 21.7607 84.6424 21.0644H92.2181V19.102C92.2181 17.2979 91.6978 15.9052 90.6899 14.9557ZM84.7074 18.3424C84.7724 17.6777 84.9675 17.1713 85.2927 16.8548C85.6178 16.5383 86.0405 16.38 86.5607 16.38C87.1134 16.38 87.5361 16.5699 87.8612 16.9181C88.1864 17.2662 88.3489 17.741 88.3815 18.3424H84.7074Z" fill="white"/>
<path d="M31.6123 14.9557C30.6044 14.0062 29.1738 13.4998 27.3205 13.4998C25.3697 13.4998 23.874 14.0378 22.8336 15.1773C21.7932 16.2851 21.2729 17.8676 21.2729 19.9566C21.2729 21.9506 21.8257 23.5015 22.9637 24.6093C24.1016 25.6854 25.6948 26.2235 27.7432 26.2235C28.7186 26.2235 29.5639 26.1602 30.2792 26.0336C30.9945 25.907 31.6773 25.6854 32.3276 25.3373L31.6773 22.5836C31.1896 22.7735 30.7344 22.9318 30.3117 23.0267C29.694 23.1533 29.0112 23.2483 28.2634 23.2483C27.4505 23.2483 26.8003 23.0584 26.3126 22.6786C25.8249 22.2987 25.5973 21.7607 25.5648 21.0644H33.1404V19.102C33.1079 17.2979 32.6202 15.9052 31.6123 14.9557ZM25.5973 18.3424C25.6623 17.6777 25.8574 17.1713 26.1825 16.8548C26.5077 16.5383 26.9303 16.38 27.4505 16.38C28.0033 16.38 28.426 16.5699 28.7511 16.9181C29.0762 17.2662 29.2388 17.741 29.2713 18.3424H25.5973Z" fill="white"/>
</svg>
